 logo<svg xmlns="http://www.w3.org/2000/svg" viewBox="0 0 200 200" width="100%" height="100%">
  <path d="M 100 30 
           C 70 -5, 20 10, 20 50 
           C 20 85, 60 110, 100 125 
           C 140 110, 180 85, 180 50 
           C 180 10, 130 -5, 100 30 Z" 
        fill="#258597" 
        stroke="#258597" 
        stroke-width="2" 
        stroke-linejoin="round" />

  <path d="M 30 150 
           Q 45 141, 70 141 
           L 120 141 
           A 5 5 0 0 1 120 151 
           L 90 151 
           A 4 4 0 0 0 90 159 
           L 124 159 
           L 174 129 
           A 5.8 5.8 0 0 1 180 139 
           L 130 169 
           C 115 178, 60 190, 20 175 
           Z" 
        fill="#258597" 
        stroke="#258597" 
        stroke-width="2" 
        stroke-linejoin="round" />
</svg>
